<svg width="35" height="35" viewBox="0 0 35 35" fill="none" xmlns="http://www.w3.org/2000/svg">
<g clip-path="url(#clip0_1_2485)">
<path d="M25.41 18.4143C25.4398 16.1099 26.6495 13.9812 28.6155 12.7742C27.3696 10.9973 25.3576 9.91104 23.1866 9.84321C20.9024 9.60378 18.688 11.2082 17.524 11.2082C16.3375 11.2082 14.5455 9.86698 12.6156 9.90663C10.0765 9.98855 7.76668 11.3953 6.53134 13.6122C3.90063 18.1607 5.86291 24.8455 8.38291 28.5221C9.64371 30.3224 11.1172 32.3335 13.0453 32.2622C14.932 32.1841 15.6367 31.0607 17.9141 31.0607C20.1704 31.0607 20.8316 32.2622 22.7988 32.2169C24.8234 32.1841 26.0989 30.4085 27.3155 28.5911C28.2214 27.3083 28.9184 25.8905 29.3809 24.3902C26.9763 23.3746 25.4129 21.0217 25.41 18.4143Z" fill="#4B4B4B"/>
<path d="M21.6943 7.42526C22.7982 6.10189 23.3421 4.40093 23.2104 2.68359C21.5239 2.86049 19.966 3.66542 18.8473 4.93801C17.7425 6.1936 17.1828 7.83623 17.2915 9.50413C19.0006 9.5217 20.6233 8.75549 21.6943 7.42526Z" fill="#4B4B4B"/>
</g>
<defs>
<clipPath id="clip0_1_2485">
<rect width="34" height="34" fill="white" transform="translate(0.6875 0.845703)"/>
</clipPath>
</defs>
</svg>
