<svg width="35" height="35" viewBox="0 0 35 35" fill="none" xmlns="http://www.w3.org/2000/svg">
<g clip-path="url(#clip0_1_2494)">
<path fill-rule="evenodd" clip-rule="evenodd" d="M4.04736 4.81679C4.04736 4.61025 4.0638 4.41697 4.09523 4.23774L16.9603 17.8195L4.0746 31.423C4.05664 31.283 4.04736 31.1353 4.04736 30.98V4.81679ZM5.46521 33.0894C5.93865 33.1659 6.49992 33.0507 7.10043 32.7153L22.7673 23.95L18.4449 19.3867L5.46521 33.0894ZM19.9294 17.8195L24.7086 22.8649L30.5311 19.6078C32.2097 18.6674 32.2097 17.1295 30.5311 16.1913L24.6097 12.8785L19.9294 17.8195ZM22.6691 11.7927L7.10043 3.0825C6.61742 2.8116 6.15965 2.68384 5.75353 2.68384C5.70096 2.68384 5.64924 2.68596 5.59842 2.69019L18.4449 16.2523L22.6691 11.7927Z" fill="#4B4B4B"/>
</g>
<defs>
<clipPath id="clip0_1_2494">
<rect width="34" height="34" fill="white" transform="translate(0.546875 0.84668)"/>
</clipPath>
</defs>
</svg>
